<svg width="474" height="48" viewBox="0 0 474 48" fill="none" xmlns="http://www.w3.org/2000/svg">
<rect x="36" width="135" height="44" rx="8" fill="#E6FE58"/>
<path d="M61.6854 39.48C58.7734 39.48 56.0854 39.112 53.6214 38.376C51.1894 37.608 49.0934 36.504 47.3334 35.064C45.5734 33.592 44.2134 31.768 43.2534 29.592C42.2934 27.384 41.8134 24.856 41.8134 22.008C41.8134 19.48 42.3254 17.16 43.3494 15.048C44.4054 12.904 45.8774 11.048 47.7654 9.48C49.6534 7.912 51.8934 6.696 54.4854 5.832C57.0774 4.968 59.9254 4.536 63.0294 4.536C65.4614 4.536 67.7014 4.808 69.7494 5.352C71.8294 5.864 73.6374 6.536 75.1734 7.368C76.7414 8.2 78.0374 9.08 79.0614 10.008L73.3974 16.296C72.5334 15.656 71.5734 15.08 70.5174 14.568C69.4934 14.024 68.3574 13.592 67.1094 13.272C65.8614 12.92 64.4534 12.744 62.8854 12.744C61.3174 12.744 59.8454 12.984 58.4694 13.464C57.1254 13.912 55.9574 14.552 54.9654 15.384C53.9734 16.184 53.1894 17.16 52.6134 18.312C52.0694 19.432 51.7974 20.664 51.7974 22.008C51.7974 23.704 52.0854 25.144 52.6614 26.328C53.2694 27.48 54.0854 28.424 55.1094 29.16C56.1334 29.896 57.3174 30.44 58.6614 30.792C60.0054 31.112 61.3974 31.272 62.8374 31.272C64.3094 31.272 65.6374 31.128 66.8214 30.84C68.0374 30.552 69.0934 30.152 69.9894 29.64C70.8854 29.128 71.5734 28.52 72.0534 27.816C72.5334 27.08 72.7734 26.264 72.7734 25.368V24.312L74.0694 26.616H61.9734V19.8H81.6534C81.6854 20.248 81.7174 20.824 81.7494 21.528C81.7814 22.2 81.7974 22.824 81.7974 23.4C81.8294 23.976 81.8454 24.344 81.8454 24.504C81.8454 26.936 81.3654 29.08 80.4054 30.936C79.4454 32.792 78.0694 34.36 76.2774 35.64C74.5174 36.888 72.4054 37.848 69.9414 38.52C67.4774 39.16 64.7254 39.48 61.6854 39.48ZM95.8583 39V23.64L96.6743 27.048L79.5383 5.4H90.9623L103.538 21.912H97.9703L110.066 5.4H120.818L105.122 26.136L105.458 23.256V39H95.8583ZM122.005 39V5.4H130.309L144.997 24.552H139.045L153.781 5.4H161.989V39H152.821V29.64C152.821 26.952 152.885 24.44 153.013 22.104C153.173 19.768 153.429 17.4 153.781 15L154.741 17.976L143.557 31.512H140.389L129.157 17.832L130.213 15C130.597 17.368 130.853 19.72 130.981 22.056C131.109 24.36 131.173 26.888 131.173 29.64V39H122.005Z" fill="black"/>
<rect x="36" width="135" height="44" rx="8" fill="#E6FE58"/>
<path d="M61.6854 39.48C58.7734 39.48 56.0854 39.112 53.6214 38.376C51.1894 37.608 49.0934 36.504 47.3334 35.064C45.5734 33.592 44.2134 31.768 43.2534 29.592C42.2934 27.384 41.8134 24.856 41.8134 22.008C41.8134 19.48 42.3254 17.16 43.3494 15.048C44.4054 12.904 45.8774 11.048 47.7654 9.48C49.6534 7.912 51.8934 6.696 54.4854 5.832C57.0774 4.968 59.9254 4.536 63.0294 4.536C65.4614 4.536 67.7014 4.808 69.7494 5.352C71.8294 5.864 73.6374 6.536 75.1734 7.368C76.7414 8.2 78.0374 9.08 79.0614 10.008L73.3974 16.296C72.5334 15.656 71.5734 15.08 70.5174 14.568C69.4934 14.024 68.3574 13.592 67.1094 13.272C65.8614 12.92 64.4534 12.744 62.8854 12.744C61.3174 12.744 59.8454 12.984 58.4694 13.464C57.1254 13.912 55.9574 14.552 54.9654 15.384C53.9734 16.184 53.1894 17.16 52.6134 18.312C52.0694 19.432 51.7974 20.664 51.7974 22.008C51.7974 23.704 52.0854 25.144 52.6614 26.328C53.2694 27.48 54.0854 28.424 55.1094 29.16C56.1334 29.896 57.3174 30.44 58.6614 30.792C60.0054 31.112 61.3974 31.272 62.8374 31.272C64.3094 31.272 65.6374 31.128 66.8214 30.84C68.0374 30.552 69.0934 30.152 69.9894 29.64C70.8854 29.128 71.5734 28.52 72.0534 27.816C72.5334 27.08 72.7734 26.264 72.7734 25.368V24.312L74.0694 26.616H61.9734V19.8H81.6534C81.6854 20.248 81.7174 20.824 81.7494 21.528C81.7814 22.2 81.7974 22.824 81.7974 23.4C81.8294 23.976 81.8454 24.344 81.8454 24.504C81.8454 26.936 81.3654 29.08 80.4054 30.936C79.4454 32.792 78.0694 34.36 76.2774 35.64C74.5174 36.888 72.4054 37.848 69.9414 38.52C67.4774 39.16 64.7254 39.48 61.6854 39.48ZM95.8583 39V23.64L96.6743 27.048L79.5383 5.4H90.9623L103.538 21.912H97.9703L110.066 5.4H120.818L105.122 26.136L105.458 23.256V39H95.8583ZM122.005 39V5.4H130.309L144.997 24.552H139.045L153.781 5.4H161.989V39H152.821V29.64C152.821 26.952 152.885 24.44 153.013 22.104C153.173 19.768 153.429 17.4 153.781 15L154.741 17.976L143.557 31.512H140.389L129.157 17.832L130.213 15C130.597 17.368 130.853 19.72 130.981 22.056C131.109 24.36 131.173 26.888 131.173 29.64V39H122.005Z" fill="black"/>
<path d="M198.283 39V5.4H214.651C216.667 5.4 218.459 5.848 220.027 6.744C221.595 7.608 222.843 8.792 223.771 10.296C224.731 11.768 225.211 13.432 225.211 15.288C225.211 17.336 224.731 19.112 223.771 20.616C222.811 22.12 221.499 23.288 219.835 24.12C218.203 24.952 216.315 25.368 214.171 25.368H200.683V39H198.283ZM224.107 39L213.403 24.552L215.563 23.4L226.987 39H224.107ZM200.683 22.968H213.883C215.611 22.968 217.131 22.648 218.443 22.008C219.755 21.336 220.779 20.44 221.515 19.32C222.251 18.168 222.619 16.856 222.619 15.384C222.619 13.976 222.235 12.696 221.467 11.544C220.731 10.392 219.707 9.48 218.395 8.808C217.115 8.136 215.659 7.8 214.027 7.8H200.683V22.968ZM252.691 39.336C249.587 39.336 246.867 38.664 244.531 37.32C242.227 35.976 240.435 34.104 239.155 31.704C237.875 29.304 237.235 26.584 237.235 23.544V5.4H239.635V23.352C239.635 26.008 240.195 28.36 241.315 30.408C242.435 32.456 243.987 34.056 245.971 35.208C247.955 36.328 250.179 36.888 252.643 36.888C255.299 36.888 257.619 36.328 259.603 35.208C261.619 34.056 263.187 32.456 264.307 30.408C265.459 28.36 266.035 26.008 266.035 23.352V5.4H268.387V23.592C268.387 26.632 267.731 29.352 266.419 31.752C265.139 34.12 263.315 35.976 260.947 37.32C258.611 38.664 255.859 39.336 252.691 39.336ZM289.919 39V7.8H277.391V5.4H305.183V7.8H292.319V39H289.919ZM313.674 39V36.504H321.786V7.896H313.674V5.4H332.298V7.896H324.186V36.504H332.298V39H313.674ZM345.517 39V5.4H348.061L377.053 36.312L376.573 37.56C376.541 37.112 376.525 36.216 376.525 34.872C376.525 33.528 376.509 32.008 376.477 30.312C376.477 28.584 376.461 26.904 376.429 25.272C376.429 23.608 376.429 22.184 376.429 21C376.429 19.816 376.413 19.144 376.381 18.984V5.4H378.781V39H376.093L347.245 8.28L347.533 6.936C347.533 7.256 347.533 7.896 347.533 8.856C347.565 9.816 347.597 10.936 347.629 12.216C347.693 13.496 347.741 14.824 347.773 16.2C347.837 17.544 347.869 18.792 347.869 19.944C347.901 21.064 347.917 21.912 347.917 22.488V39H345.517ZM392.58 39V5.4H417.492V7.8H394.98V36.6H417.3V39H392.58ZM393.828 22.872V20.472H414.756V22.872H393.828Z" fill="#F5F5F5"/>
</svg>
